<?xml version="1.0" encoding="UTF-8"?>
    <svg width="800" height="700" version="1.1" xmlns="http://www.w3.org/2000/svg">
    <style>
        .row { font: 14px Arial; fill: #64748b; }
        .score { font: bold 14px Arial; fill: #64748b; }
    </style>
    <text x="400" y="40" text-anchor="middle" font-size="20px" font-weight="bold" fill="#64748b">Channel Performance Overview</text><rect x="150" y="80" width="500" height="30" fill="#eee" rx="5"/><rect x="150" y="80" width="75.0" height="30" fill="#ef4444" rx="5"/>
        <text x="140" y="100" text-anchor="end" class="row"></text>
        <text x="660" y="100" text-anchor="start" class="score">15.0% (S:0%)</text><rect x="150" y="130" width="500" height="30" fill="#eee" rx="5"/><rect x="150" y="130" width="373.9" height="30" fill="#22c55e" rx="5"/>
        <text x="140" y="150" text-anchor="end" class="row">mix</text>
        <text x="660" y="150" text-anchor="start" class="score">74.8% (S:100%)</text><rect x="150" y="180" width="500" height="30" fill="#eee" rx="5"/><rect x="150" y="180" width="388.1" height="30" fill="#22c55e" rx="5"/>
        <text x="140" y="200" text-anchor="end" class="row">configs.txt</text>
        <text x="660" y="200" text-anchor="start" class="score">77.6% (S:100%)</text><rect x="150" y="230" width="500" height="30" fill="#eee" rx="5"/><rect x="150" y="230" width="374.4" height="30" fill="#22c55e" rx="5"/>
        <text x="140" y="250" text-anchor="end" class="row">proxy_configs.txt</text>
        <text x="660" y="250" text-anchor="start" class="score">74.9% (S:100%)</text><rect x="150" y="280" width="500" height="30" fill="#eee" rx="5"/><rect x="150" y="280" width="374.45" height="30" fill="#22c55e" rx="5"/>
        <text x="140" y="300" text-anchor="end" class="row">V2RAY_BASE64.txt</text>
        <text x="660" y="300" text-anchor="start" class="score">74.9% (S:100%)</text><rect x="150" y="330" width="500" height="30" fill="#eee" rx="5"/><rect x="150" y="330" width="374.15" height="30" fill="#22c55e" rx="5"/>
        <text x="140" y="350" text-anchor="end" class="row">iPsycho%20BPB</text>
        <text x="660" y="350" text-anchor="start" class="score">74.8% (S:100%)</text><rect x="150" y="380" width="500" height="30" fill="#eee" rx="5"/><rect x="150" y="380" width="374.90000000000003" height="30" fill="#22c55e" rx="5"/>
        <text x="140" y="400" text-anchor="end" class="row">Iran.txt</text>
        <text x="660" y="400" text-anchor="start" class="score">75.0% (S:100%)</text><rect x="150" y="430" width="500" height="30" fill="#eee" rx="5"/><rect x="150" y="430" width="375.05" height="30" fill="#22c55e" rx="5"/>
        <text x="140" y="450" text-anchor="end" class="row">sub.txt</text>
        <text x="660" y="450" text-anchor="start" class="score">75.0% (S:100%)</text><rect x="150" y="480" width="500" height="30" fill="#eee" rx="5"/><rect x="150" y="480" width="434.09999999999997" height="30" fill="#22c55e" rx="5"/>
        <text x="140" y="500" text-anchor="end" class="row">?key=F225BC16D80D287</text>
        <text x="660" y="500" text-anchor="start" class="score">86.8% (S:100%)</text><rect x="150" y="530" width="500" height="30" fill="#eee" rx="5"/><rect x="150" y="530" width="300.05" height="30" fill="#eab308" rx="5"/>
        <text x="140" y="550" text-anchor="end" class="row">42f2de82e7c892d58bffbf98100a4a3f</text>
        <text x="660" y="550" text-anchor="start" class="score">60.0% (S:100%)</text><rect x="150" y="580" width="500" height="30" fill="#eee" rx="5"/><rect x="150" y="580" width="361.95" height="30" fill="#22c55e" rx="5"/>
        <text x="140" y="600" text-anchor="end" class="row">uc?id=10SWXrPMLzd8TifJZAvuqc2XCIkuhefvS&export=download</text>
        <text x="660" y="600" text-anchor="start" class="score">72.4% (S:100%)</text><rect x="150" y="630" width="500" height="30" fill="#eee" rx="5"/><rect x="150" y="630" width="350.75" height="30" fill="#22c55e" rx="5"/>
        <text x="140" y="650" text-anchor="end" class="row">T_hamedp71</text>
        <text x="660" y="650" text-anchor="start" class="score">70.2% (S:100%)</text></svg>